<?xml version="1.0" encoding="UTF-8"?>
<svg id="Calque_1" xmlns="http://www.w3.org/2000/svg" version="1.1" viewBox="0 0 56.69 56.69">
  <!-- Generator: Adobe Illustrator 29.0.1, SVG Export Plug-In . SVG Version: 2.1.0 Build 192)  -->
  <defs>
    <style>
      .st0 {
        stroke: #fff;
        stroke-miterlimit: 10;
        stroke-width: .25px;
      }

      .st0, .st1 {
        fill: #1e1e1c;
      }

      .st2 {
        fill: #fff;
      }
    </style>
  </defs>
  <g>
    <path class="st0" d="M39.47,29.28c.09.19.14.39.14.61v9.61c0,.78-.64,1.42-1.42,1.42h-16.39c-.78,0-1.42-.64-1.42-1.42v-9.61c0-.36.13-.68.35-.93l8.71,7.27c.54.45,1.31.45,1.85,0l8.18-6.95Z"/>
    <path class="st0" d="M39.47,29.28l-8.18,6.95c-.54.45-1.31.45-1.85,0l-8.71-7.27c.26-.3.64-.49,1.07-.49h16.39c.56,0,1.06.33,1.28.81Z"/>
    <path class="st0" d="M39.47,29.28l-8.18,6.95c-.54.45-1.31.45-1.85,0l-8.71-7.27c.26-.3.64-.49,1.07-.49h16.39c.56,0,1.06.33,1.28.81Z"/>
  </g>
  <g>
    <path class="st1" d="M21.06,25.11c1.85.99,2.52,3.71,2.69,4.56.03.17.04.34-.02.5-.39.99-2.03,2.08-2.03,2.08-.44.53-.44,1.18-.44,1.18l2.72,4.99c1.23.92,1.84.31,1.84.31l1.18-.57c1.01-.53,2.1.44,2.1.44.92.7,2.15,3.24,2.15,3.24.66,1.62,0,2.01,0,2.01-.53.61-2.5,1.09-2.5,1.09-1.27.48-3.11,0-3.11,0-.76-.12-2.71-1.36-3.06-1.59-.04-.02-.07-.05-.11-.08-.73-.6-1.36-1.4-1.53-1.61-.03-.04-.05-.07-.07-.11l-3.78-6.55c-2.49-4.08.3-7.96.7-8.49.03-.04.06-.08.1-.11.61-.62,1.23-1.03,1.68-1.27s1.03-.28,1.49-.04Z"/>
    <path class="st2" d="M27.37,45.3c-.91,0-1.72-.21-1.77-.22-.77-.12-2.71-1.36-3.09-1.6-.04-.03-.08-.05-.12-.09-.74-.6-1.37-1.4-1.55-1.63-.03-.04-.06-.08-.08-.13l-3.78-6.55c-2.54-4.17.37-8.18.71-8.62.04-.05.07-.09.11-.13.64-.65,1.28-1.06,1.71-1.29.52-.28,1.12-.3,1.61-.04h0c1.9,1.02,2.59,3.82,2.75,4.65.04.22.03.41-.03.57-.38.98-1.88,2.01-2.07,2.13-.34.42-.39.93-.4,1.06l2.69,4.94c1.1.81,1.63.32,1.66.3l.03-.02,1.18-.57c1.06-.56,2.19.42,2.24.46.93.7,2.12,3.17,2.18,3.28.64,1.57.09,2.08-.03,2.16-.56.63-2.47,1.1-2.55,1.12-.43.17-.93.22-1.4.22ZM20.37,25.07c-.25,0-.51.06-.74.19-.41.22-1.02.62-1.65,1.25-.03.03-.06.07-.09.1-.33.43-3.15,4.31-.69,8.34l3.78,6.55s.04.07.07.1c.17.22.79,1,1.51,1.59.03.03.06.05.09.07,1.04.67,2.44,1.48,3.01,1.57.03,0,1.83.47,3.05,0,.03,0,1.95-.48,2.45-1.06l.03-.03s.55-.38-.05-1.86c0-.02-1.22-2.51-2.11-3.19-.02-.02-1.05-.9-1.97-.43l-1.17.56c-.12.1-.79.59-1.99-.31l-.03-.04-2.73-5.05s0-.71.47-1.26l.03-.02s1.62-1.08,1.99-2.02c.04-.12.05-.26.02-.43-.16-.81-.83-3.51-2.63-4.48h0c-.19-.1-.41-.15-.63-.15Z"/>
  </g>
</svg>