<?xml version="1.0" encoding="UTF-8"?>
<svg xmlns="http://www.w3.org/2000/svg" version="1.1" viewBox="0 0 56.69 56.69">
  <defs>
    <style>
      .cls-1 {
        fill: none;
        stroke: #1d1d1b;
        stroke-linecap: round;
        stroke-linejoin: round;
        stroke-width: .75px;
      }

      .cls-2 {
        fill: #1d1d1b;
      }
    </style>
  </defs>
  <!-- Generator: Adobe Illustrator 28.7.2, SVG Export Plug-In . SVG Version: 1.2.0 Build 154)  -->
  <g>
    <g id="Calque_1">
      <g>
        <path class="cls-2" d="M45.6,43.66l.77,2.08c.19.52.09,1.1-.27,1.52l-.41.48c-.41.48-.49,1.16-.19,1.72,1.59,2.96,3.2,3.75,4.12,3.95.42.09.85-.02,1.19-.27l.77-.57c.4-.3.93-.38,1.4-.21l2.18.76c.61.21,1.01.79,1.01,1.43v.14c0,.31-.09.62-.28.87-.54.75-3.21,2.18-3.91,1.59l-.38-.07c-.1,0-.19-.02-.29-.05-.73-.2-3.78-1.24-7.73-5.64-3.42-3.81-1.79-6.89-.78-8.18.33-.41.85-.61,1.38-.54l.2.03c.55.08,1.02.45,1.21.97Z"/>
        <path class="cls-1" d="M48.85,46.29c3.01.33,3.71.85,4.04,4.04"/>
        <path class="cls-1" d="M55.03,50.06c-.12-3.59-2.36-6.03-5.86-5.91"/>
        <path class="cls-1" d="M56.95,50.14c.08-4.53-3.5-8.27-8.02-8.35"/>
      </g>
    </g>
  </g>
</svg>